# File created by Blade
# Date/Time:  Thu Sep 25 18:58:07 2014
# Frame Rate: 120.000 fps
#------------------------------------------------------
:FULLY-SPECIFIED
:DEGREES
2245
root 1.653767 32.883751 0.730214 5.015116 1.041379 -0.263046
Spine -10.858844 6.752905 -0.417586
Head -6.380552 -4.787335 7.227819
LeftShoulder 14.049224 -30.789705 35.342329
LeftArm 98.607942 6.411207 -35.679695
LeftForeArm 8.804273 -0.000000 20.491798
LeftHand -22.050307 -0.000000 -16.496984
LeftHandThumb1 -26.253704 0.000000 33.147579
RightShoulder 14.750179 44.227329 -18.136946
RightArm 50.293466 -25.360603 79.516622
RightForeArm -31.820530 -0.000000 22.719785
RightHand -1.535638 0.000000 18.491791
RightHandThumb1 -24.326973 -0.000000 -32.862282
LeftUpLeg 0.088128 10.943978 3.956308
LeftLeg -3.765319 -0.000000 0.000000
LeftFoot -4.460361 -4.106747 -17.903551
LeftToeBase 8.927070 -0.000000 -0.000000
RightUpLeg -0.245711 -11.648800 -6.726735
RightLeg -0.961282 -0.000000 0.000000
RightFoot -2.793817 -0.239338 3.848995
RightToeBase -2.865450 -0.000000 0.000000
2246
root 1.656635 32.884487 0.736780 5.007190 1.032200 -0.264583
Spine -10.879909 6.800122 -0.401183
Head -6.331711 -4.784033 7.145676
LeftShoulder 14.044656 -30.941846 35.382385
LeftArm 98.621269 6.425170 -35.557543
LeftForeArm 8.694751 -0.000000 20.539076
LeftHand -22.024587 -0.000000 -16.285058
LeftHandThumb1 -26.253704 0.000000 33.147579
RightShoulder 14.793312 44.224178 -18.076477
RightArm 50.275791 -25.516118 79.598014
RightForeArm -31.915240 -0.000000 22.596627
RightHand -1.490293 0.000000 18.328103
RightHandThumb1 -24.326973 -0.000000 -32.862282
LeftUpLeg 0.112710 10.960412 3.956385
LeftLeg -3.772130 -0.000000 0.000000
LeftFoot -4.442295 -4.115604 -17.904237
LeftToeBase 8.855256 -0.000000 -0.000000
RightUpLeg -0.227062 -11.645895 -6.734499
RightLeg -0.964639 -0.000000 0.000000
RightFoot -2.781726 -0.233129 3.853407
RightToeBase -2.887271 -0.000000 0.000000
2247
root 1.659955 32.884666 0.742860 4.999511 1.023490 -0.260458
Spine -10.894957 6.853554 -0.387448
Head -6.286417 -4.777461 7.045384
LeftShoulder 14.018853 -31.062627 35.424188
LeftArm 98.670754 6.424317 -35.413401
LeftForeArm 8.640201 0.000000 20.600905
LeftHand -21.991624 0.000000 -16.203246
LeftHandThumb1 -26.253704 0.000000 33.147579
RightShoulder 14.800813 44.228971 -18.051945
RightArm 50.270520 -25.683806 79.663554
RightForeArm -31.918156 -0.000000 22.543483
RightHand -1.277516 0.000000 18.406504
RightHandThumb1 -24.326973 -0.000000 -32.862282
LeftUpLeg 0.136462 10.966864 3.954637
LeftLeg -3.782448 -0.000000 0.000000
LeftFoot -4.400693 -4.165751 -17.740788
LeftToeBase 8.657348 -0.000000 -0.000000
RightUpLeg -0.204822 -11.613869 -6.748158
RightLeg -0.974715 -0.000000 0.000000
RightFoot -2.776913 -0.256274 3.868415
RightToeBase -2.895162 -0.000000 0.000000
2248
root 1.663797 32.885919 0.749331 4.986590 1.015762 -0.247584
Spine -10.903247 6.903171 -0.393568
Head -6.244850 -4.754324 6.992055
LeftShoulder 14.036651 -31.470733 35.405975
LeftArm 98.558857 6.696358 -35.348699
LeftForeArm 8.731906 -0.000000 20.621009
LeftHand -22.019512 -0.000000 -16.322443
LeftHandThumb1 -26.253704 0.000000 33.147579
RightShoulder 14.854240 44.253505 -17.966300
RightArm 50.218390 -25.807174 79.772293
RightForeArm -32.095349 -0.000000 22.498640
RightHand -1.048933 -0.000000 18.572835
RightHandThumb1 -24.326973 -0.000000 -32.862282
LeftUpLeg 0.164077 10.960058 3.935064
LeftLeg -3.783355 -0.000000 0.000000
LeftFoot -4.443946 -4.102906 -17.916699
LeftToeBase 8.893157 -0.000000 -0.000000
RightUpLeg -0.180646 -11.601963 -6.773424
RightLeg -0.975137 -0.000000 0.000000
RightFoot -2.771816 -0.248150 3.884221
RightToeBase -2.896629 -0.000000 0.000000
2249
root 1.666842 32.886214 0.755658 4.973309 1.008715 -0.248369
Spine -10.906478 6.963833 -0.383935
Head -6.212630 -4.750545 6.939452
LeftShoulder 14.089893 -31.699597 35.399771
LeftArm 98.547435 6.790961 -35.314962
LeftForeArm 9.007696 0.000000 20.720449
LeftHand -22.222596 -0.000000 -16.372266
LeftHandThumb1 -26.253704 0.000000 33.147579
RightShoulder 14.847657 44.227269 -17.924609
RightArm 50.290696 -25.954805 79.785158
RightForeArm -32.185426 -0.000000 22.444445
RightHand -1.017176 -0.000000 18.663516
RightHandThumb1 -24.326973 -0.000000 -32.862282
LeftUpLeg 0.187741 10.979740 3.939917
LeftLeg -3.787171 -0.000000 0.000000
LeftFoot -4.428637 -4.148303 -17.866835
LeftToeBase 8.811479 -0.000000 -0.000000
RightUpLeg -0.158204 -11.594986 -6.784155
RightLeg -0.973952 -0.000000 0.000000
RightFoot -2.767658 -0.236607 3.907773
RightToeBase -2.900059 -0.000000 0.000000
2250
root 1.669593 32.886340 0.762027 4.952725 1.012636 -0.241398
Spine -10.900767 7.005125 -0.386407
Head -6.174686 -4.753905 6.909722
LeftShoulder 14.092195 -31.789002 35.440666
LeftArm 98.650358 6.770252 -35.144412
LeftForeArm 8.928398 -0.000000 20.714270
LeftHand -22.258406 0.000000 -16.309619
LeftHandThumb1 -26.253704 0.000000 33.147579
RightShoulder 14.899731 44.184313 -17.835735
RightArm 50.357617 -26.098869 79.739292
RightForeArm -32.039848 -0.000000 22.452355
RightHand -0.972758 -0.000000 18.658215
RightHandThumb1 -24.326973 -0.000000 -32.862282
LeftUpLeg 0.221892 10.948987 3.936875
LeftLeg -3.788591 -0.000000 0.000000
LeftFoot -4.442481 -4.143056 -17.894606
LeftToeBase 8.914443 -0.000000 -0.000000
RightUpLeg -0.125010 -11.597564 -6.800302
RightLeg -0.974143 -0.000000 0.000000
RightFoot -2.777461 -0.243145 3.897640
RightToeBase -2.850779 -0.000000 0.000000
2251
root 1.672055 32.885718 0.767275 4.931024 1.020296 -0.240363
Spine -10.883814 7.022755 -0.371852
Head -6.159401 -4.747659 6.873049
LeftShoulder 14.070575 -31.854600 35.512689
LeftArm 98.718839 6.739071 -35.046451
LeftForeArm 9.151635 -0.000000 20.798088
LeftHand -22.436100 0.000000 -16.604298
LeftHandThumb1 -26.253704 0.000000 33.147579
RightShoulder 14.984433 44.172409 -17.735527
RightArm 50.322369 -26.182237 79.772121
RightForeArm -31.940346 0.000000 22.548356
RightHand -0.966892 -0.000000 18.709128
RightHandThumb1 -24.326973 -0.000000 -32.862282
LeftUpLeg 0.251467 10.933575 3.937840
LeftLeg -3.788341 -0.000000 0.000000
LeftFoot -4.455182 -4.134068 -17.862734
LeftToeBase 8.897425 -0.000000 -0.000000
RightUpLeg -0.092209 -11.582536 -6.814403
RightLeg -0.970314 -0.000000 0.000000
RightFoot -2.783469 -0.256082 3.918114
RightToeBase -2.852390 -0.000000 0.000000
2252
root 1.675535 32.885389 0.771435 4.917574 1.031653 -0.237079
Spine -10.879200 7.071496 -0.374484
Head -6.140454 -4.783615 6.873275
LeftShoulder 14.038310 -31.814305 35.617973
LeftArm 98.858687 6.617045 -34.924545
LeftForeArm 9.087223 -0.000000 20.808379
LeftHand -22.156828 -0.000000 -16.504404
LeftHandThumb1 -26.253704 0.000000 33.147579
RightShoulder 14.973381 44.044421 -17.710553
RightArm 50.387135 -26.237312 79.785915
RightForeArm -31.725817 -0.000000 22.670720
RightHand -1.054731 -0.000000 18.661759
RightHandThumb1 -24.326973 -0.000000 -32.862282
LeftUpLeg 0.262234 10.884227 3.928076
LeftLeg -3.757364 -0.000000 0.000000
LeftFoot -4.507528 -4.075585 -17.934354
LeftToeBase 8.895920 -0.000000 -0.000000
RightUpLeg -0.067106 -11.589192 -6.826256
RightLeg -0.973220 -0.000000 0.000000
RightFoot -2.788099 -0.257685 3.913661
RightToeBase -2.871894 -0.000000 0.000000
2253
root 1.677613 32.884071 0.776111 4.893405 1.044205 -0.248111
Spine -10.853343 7.131101 -0.358452
Head -6.139681 -4.812466 6.871226
LeftShoulder 13.973412 -31.760304 35.771499
LeftArm 99.001274 6.502424 -34.966323
LeftForeArm 9.108507 -0.000000 20.873910
LeftHand -22.065484 -0.000000 -16.467046
LeftHandThumb1 -26.253704 0.000000 33.147579
RightShoulder 14.873212 43.795580 -17.767814
RightArm 50.632480 -26.335547 79.617346
RightForeArm -31.353073 -0.000000 22.861444
RightHand -0.975257 -0.000000 18.604935
RightHandThumb1 -24.326973 -0.000000 -32.862282
LeftUpLeg 0.292011 10.890709 3.947653
LeftLeg -3.764625 -0.000000 0.000000
LeftFoot -4.497976 -4.131200 -17.868949
LeftToeBase 8.826855 -0.000000 -0.000000
RightUpLeg -0.028968 -11.577711 -6.825278
RightLeg -0.978705 -0.000000 0.000000
RightFoot -2.794119 -0.275206 3.906730
RightToeBase -2.880937 -0.000000 0.000000
2254
root 1.680839 32.883687 0.779332 4.881404 1.058293 -0.252085
Spine -10.845583 7.160587 -0.320577
Head -6.095895 -4.837526 6.774069
LeftShoulder 13.889319 -31.691366 35.876604
LeftArm 99.078258 6.348233 -34.771691
LeftForeArm 8.922481 -0.000000 21.067403
LeftHand -22.008811 -0.000000 -16.441464
LeftHandThumb1 -26.253704 0.000000 33.147579
RightShoulder 14.950985 43.977337 -17.683946
RightArm 50.298962 -26.426046 79.788744
RightForeArm -31.053269 -0.000000 23.097886
RightHand -0.887461 0.000000 18.480304
RightHandThumb1 -24.326973 -0.000000 -32.862282
LeftUpLeg 0.303774 10.863376 3.950022
LeftLeg -3.756974 -0.000000 0.000000
LeftFoot -4.516859 -4.125717 -17.843454
LeftToeBase 8.840121 -0.000000 -0.000000
RightUpLeg -0.012848 -11.563458 -6.828335
RightLeg -0.965365 -0.000000 0.000000
RightFoot -2.809182 -0.307885 3.915455
RightToeBase -2.858067 -0.000000 0.000000
2255
root 1.683088 32.880907 0.782765 4.864659 1.075282 -0.277634
Spine -10.820207 7.224878 -0.276240
Head -6.108289 -4.852299 6.734945
LeftShoulder 13.797360 -31.856094 36.045612
LeftArm 98.957829 6.419784 -34.889483
LeftForeArm 9.122394 -0.000000 21.371201
LeftHand -22.017756 0.000000 -16.733153
LeftHandThumb1 -26.253704 0.000000 33.147579
RightShoulder 14.789784 43.585949 -17.727252
RightArm 50.745347 -26.557144 79.405373
RightForeArm -30.511179 0.000000 23.327653
RightHand -0.917430 0.000000 18.382264
RightHandThumb1 -24.326973 -0.000000 -32.862282
LeftUpLeg 0.310776 10.903618 3.976083
LeftLeg -3.727423 -0.000000 0.000000
LeftFoot -4.565771 -4.186400 -17.840076
LeftToeBase 8.863139 -0.000000 -0.000000
RightUpLeg 0.007896 -11.564114 -6.811061
RightLeg -0.952834 -0.000000 0.000000
RightFoot -2.817863 -0.336933 3.961764
RightToeBase -2.942314 -0.000000 0.000000
2256
root 1.687285 32.879847 0.785148 4.866045 1.093492 -0.263531
Spine -10.826423 7.277877 -0.274828
Head -6.069121 -4.854264 6.675000
LeftShoulder 13.706282 -31.845809 36.191398
LeftArm 98.955182 6.320265 -34.838746
LeftForeArm 9.255374 -0.000000 21.611497
LeftHand -21.875603 -0.000000 -16.869816
LeftHandThumb1 -26.253704 0.000000 33.147579
RightShoulder 14.707003 43.427762 -17.669382
RightArm 50.946925 -26.770178 79.074703
RightForeArm -30.109691 -0.000000 23.526537
RightHand -0.881513 -0.000000 18.216811
RightHandThumb1 -24.326973 -0.000000 -32.862282
LeftUpLeg 0.319117 10.831026 3.955927
LeftLeg -3.744115 -0.000000 0.000000
LeftFoot -4.583584 -4.130269 -17.831928
LeftToeBase 8.874935 -0.000000 -0.000000
RightUpLeg 0.010533 -11.569606 -6.833633
RightLeg -0.942035 -0.000000 0.000000
RightFoot -2.852796 -0.329341 3.932702
RightToeBase -2.866562 -0.000000 0.000000
